<svg viewBox="0 0 56 56" xmlns="http://www.w3.org/2000/svg"><style>.a{fill:#ec6630;}.b{fill:#fff;}</style><path d="M37 0H8C7.2 0 6.5 0.7 6.5 1.9V55c0 0.3 0.7 1 1.5 1h40.1c0.8 0 1.5-0.7 1.5-1V13c0-0.7-0.1-0.9-0.3-1.1L37.6 0.3C37.4 0.1 37.2 0 37 0Z" fill="#e9e9e0"/><polygon points="37.5 0.2 37.5 12 49.3 12" fill="#d9d7ca"/><path d="M48 56H8C7.2 56 6.5 55.3 6.5 54.5V39h43v15.5C49.5 55.3 48.8 56 48 56Z" class="a"/><path d="M17.5 42.9V53h-1.6v-4.5h-4.4V53H9.8V42.9h1.7v4.4h4.4v-4.4H17.5Z" class="b"/><path d="M27.1 42.9v1.1H24.1V53h-1.7v-9h-3v-1.1H27.1Z" class="b"/><path d="M36.7 42.9h1.7V53h-1.7v-6.9l-2.3 5.6H33l-2.3-5.6V53h-1.7V42.9h1.7l3 6.9L36.7 42.9Z" class="b"/><path d="M42.6 42.9v8.8h4.6V53h-6.3V42.9H42.6Z" class="b"/><path d="M23.2 16.3c-0.4-0.4-1-0.4-1.4 0l-6 6c-0.4 0.4-0.4 1 0 1.4l6 6C22 29.9 22.2 30 22.5 30s0.5-0.1 0.7-0.3c0.4-0.4 0.4-1 0-1.4L17.9 23l5.3-5.3C23.6 17.3 23.6 16.7 23.2 16.3Z" class="a"/><path d="M41.2 22.3l-6-6c-0.4-0.4-1-0.4-1.4 0s-0.4 1 0 1.4L39.1 23l-5.3 5.3c-0.4 0.4-0.4 1 0 1.4C34 29.9 34.2 30 34.5 30s0.5-0.1 0.7-0.3l6-6C41.6 23.3 41.6 22.7 41.2 22.3Z" class="a"/></svg>