<svg viewBox="0 0 56 56" xmlns="http://www.w3.org/2000/svg"><style>.a{fill:#fff;}</style><path d="M37 0H8C7.2 0 6.5 0.7 6.5 1.9V55c0 0.3 0.7 1 1.5 1h40.1c0.8 0 1.5-0.7 1.5-1V13c0-0.7-0.1-0.9-0.3-1.1L37.6 0.3C37.4 0.1 37.2 0 37 0Z" fill="#e9e9e0"/><polygon points="37.5 0.2 37.5 12 49.3 12" fill="#d9d7ca"/><circle cx="18.9" cy="14.4" r="4.6" fill="#f3d55b"/><polygon points="6.5 39 17.5 39 49.5 39 49.5 28 39.5 18.5 29 30 23.5 24.5" fill="#26b99a"/><path d="M48 56H8C7.2 56 6.5 55.3 6.5 54.5V39h43v15.5C49.5 55.3 48.8 56 48 56Z" fill="#14a085"/><path d="M21.4 42.7v7.8c0 0.5-0.1 0.9-0.3 1.2 -0.2 0.3-0.4 0.6-0.7 0.8 -0.3 0.2-0.6 0.3-1 0.4C19.1 53 18.7 53 18.3 53c-0.2 0-0.4 0-0.7-0.1 -0.3 0-0.5-0.1-0.8-0.2s-0.6-0.2-0.8-0.3c-0.3-0.1-0.5-0.2-0.7-0.4l0.7-1.1c0.1 0.1 0.2 0.1 0.4 0.2 0.2 0.1 0.4 0.1 0.6 0.2 0.2 0.1 0.4 0.1 0.6 0.2s0.4 0.1 0.6 0.1c0.5 0 0.9-0.1 1.2-0.3s0.4-0.5 0.5-0.9V42.7H21.4Z" class="a"/><path d="M25.5 52.9h-1.6V42.9h2.9c0.4 0 0.9 0.1 1.3 0.2 0.4 0.1 0.8 0.3 1.1 0.6 0.3 0.3 0.6 0.6 0.8 1s0.3 0.8 0.3 1.3c0 0.5-0.1 1-0.3 1.4 -0.2 0.4-0.4 0.8-0.7 1 -0.3 0.3-0.7 0.5-1.1 0.7s-0.9 0.2-1.4 0.2h-1.2V52.9ZM25.5 44.1v4h1.5c0.2 0 0.4 0 0.6-0.1 0.2-0.1 0.4-0.2 0.5-0.3s0.3-0.4 0.4-0.6c0.1-0.3 0.2-0.6 0.2-1 0-0.2 0-0.4-0.1-0.6 0-0.2-0.1-0.4-0.3-0.6 -0.1-0.2-0.3-0.4-0.6-0.5C27.5 44.2 27.2 44.1 26.7 44.1H25.5Z" class="a"/><path d="M39.5 47.7v3.9c-0.2 0.3-0.4 0.5-0.7 0.6s-0.5 0.3-0.8 0.4 -0.6 0.2-0.9 0.2C36.8 53 36.5 53 36.2 53c-0.6 0-1.2-0.1-1.7-0.3s-0.9-0.5-1.3-1c-0.4-0.4-0.7-1-0.9-1.6 -0.2-0.6-0.3-1.4-0.3-2.2s0.1-1.6 0.3-2.2c0.2-0.6 0.5-1.2 0.9-1.6 0.4-0.4 0.8-0.8 1.3-1 0.5-0.2 1.1-0.3 1.7-0.3 0.5 0 1.1 0.1 1.5 0.3 0.5 0.2 0.9 0.5 1.3 0.8l-1.1 1c-0.2-0.3-0.5-0.5-0.8-0.6 -0.3-0.1-0.6-0.2-0.9-0.2 -0.3 0-0.7 0.1-1 0.2 -0.3 0.1-0.6 0.3-0.8 0.6 -0.2 0.3-0.4 0.7-0.6 1.2s-0.2 1.1-0.2 1.8c0 0.7 0.1 1.3 0.2 1.8 0.1 0.5 0.3 0.9 0.5 1.2s0.5 0.6 0.8 0.7c0.3 0.2 0.6 0.2 0.9 0.2 0.1 0 0.2 0 0.4 0 0.2 0 0.3 0 0.5-0.1 0.2 0 0.3-0.1 0.5-0.1 0.2-0.1 0.3-0.1 0.3-0.2v-2.5h-1.7v-1.1H39.5Z" class="a"/></svg>