<svg viewBox="0 0 56 56" xmlns="http://www.w3.org/2000/svg"><style>.a{fill:#fff;}</style><path d="M37 0H8C7.2 0 6.5 0.7 6.5 1.9V55c0 0.3 0.7 1 1.5 1h40.1c0.8 0 1.5-0.7 1.5-1V13c0-0.7-0.1-0.9-0.3-1.1L37.6 0.3C37.4 0.1 37.2 0 37 0Z" fill="#e9e9e0"/><path d="M48 56H8C7.2 56 6.5 55.3 6.5 54.5V39h43v15.5C49.5 55.3 48.8 56 48 56Z" fill="#659c35"/><polygon points="37.5 0.2 37.5 12 49.3 12" fill="#d9d7ca"/><path d="M17.4 53h-1.6V42.9h2.9c0.4 0 0.9 0.1 1.3 0.2 0.4 0.1 0.8 0.3 1.1 0.6 0.3 0.3 0.6 0.6 0.8 1s0.3 0.8 0.3 1.3c0 0.5-0.1 1-0.3 1.4 -0.2 0.4-0.4 0.8-0.7 1 -0.3 0.3-0.7 0.5-1.1 0.7s-0.9 0.2-1.4 0.2h-1.2V53ZM17.4 44.2v4h1.5c0.2 0 0.4 0 0.6-0.1 0.2-0.1 0.4-0.2 0.5-0.3 0.2-0.2 0.3-0.4 0.4-0.6 0.1-0.3 0.2-0.6 0.2-1 0-0.2 0-0.4-0.1-0.6 0-0.2-0.1-0.4-0.3-0.6 -0.1-0.2-0.3-0.4-0.6-0.5 -0.3-0.1-0.6-0.2-1-0.2H17.4Z" class="a"/><path d="M31.3 42.9V53h-1.7l-4-6.9V53h-1.7V42.9h1.7l4 6.9v-6.9H31.3Z" class="a"/><path d="M41.2 47.8v3.9c-0.2 0.3-0.4 0.5-0.7 0.6s-0.5 0.3-0.8 0.4S39.1 53 38.7 53c-0.3 0-0.6 0.1-0.9 0.1 -0.6 0-1.2-0.1-1.7-0.3s-0.9-0.5-1.3-1c-0.4-0.4-0.7-1-0.9-1.6 -0.2-0.6-0.3-1.4-0.3-2.2s0.1-1.6 0.3-2.2c0.2-0.6 0.5-1.2 0.9-1.6 0.4-0.4 0.8-0.8 1.3-1 0.5-0.2 1.1-0.3 1.7-0.3 0.5 0 1.1 0.1 1.5 0.3 0.5 0.2 0.9 0.5 1.3 0.8l-1.1 1c-0.2-0.3-0.5-0.5-0.8-0.6 -0.3-0.1-0.6-0.2-0.9-0.2 -0.3 0-0.7 0.1-1 0.2 -0.3 0.1-0.6 0.3-0.8 0.6 -0.2 0.3-0.4 0.7-0.6 1.2s-0.2 1.1-0.2 1.8c0 0.7 0.1 1.3 0.2 1.8 0.1 0.5 0.3 0.9 0.5 1.2s0.5 0.6 0.8 0.7c0.3 0.2 0.6 0.2 0.9 0.2 0.1 0 0.2 0 0.4 0 0.2 0 0.3 0 0.5-0.1 0.2 0 0.3-0.1 0.5-0.1 0.2-0.1 0.3-0.1 0.3-0.2v-2.5h-1.7v-1.1H41.2Z" class="a"/><circle cx="18.9" cy="14.4" r="4.6" fill="#f3d55b"/><polygon points="6.5 39 17.5 39 49.5 39 49.5 28 39.5 18.5 29 30 23.5 24.5" fill="#88c057"/></svg>